<svg xmlns="http://www.w3.org/2000/svg" width="24" height="24" viewBox="0 0 24 24"><path fill="currentColor" d="M10.768 5.25h2.464c.813 0 1.469 0 2 .043c.546.045 1.026.14 1.47.366a3.75 3.75 0 0 1 1.64 1.639c.226.444.32.924.365 1.47c.043.531.043 1.187.043 2v2.464c0 .813 0 1.469-.043 2c-.045.546-.14 1.026-.366 1.47a3.75 3.75 0 0 1-1.639 1.64c-.444.226-.924.32-1.47.365c-.531.043-1.187.043-2 .043h-3.61c-2.005 0-3.01-2.424-1.592-3.841l4.41-4.409h-1.565a.75.75 0 0 1 0-1.5h3.375a.75.75 0 0 1 .75.75v3.375a.75.75 0 0 1-1.5 0v-1.564L9.091 15.97a.75.75 0 0 0 .53 1.28H13.2c.853 0 1.447 0 1.91-.038c.453-.038.714-.107.912-.207c.423-.216.767-.56.983-.983c.1-.198.17-.459.207-.913c.037-.462.038-1.056.038-1.909v-2.4c0-.852 0-1.447-.038-1.91c-.038-.453-.107-.714-.207-.911a2.25 2.25 0 0 0-.983-.984c-.198-.1-.459-.17-.913-.207c-.462-.037-1.056-.038-1.909-.038h-2.4c-.852 0-1.447 0-1.91.038c-.453.037-.714.107-.911.207a2.25 2.25 0 0 0-.984.984c-.1.197-.17.458-.207.912c-.037.462-.038 1.057-.038 1.909v2.7a.75.75 0 0 1-1.5 0v-2.732c0-.813 0-1.469.043-2c.045-.546.14-1.026.366-1.47a3.75 3.75 0 0 1 1.639-1.64c.444-.226.924-.32 1.47-.365c.531-.043 1.187-.043 2-.043"/></svg>